<svg xmlns="http://www.w3.org/2000/svg" xmlns:xlink="http://www.w3.org/1999/xlink" version="1.1" preserveAspectRatio="xMidYMid meet" width="130" height="130" style=""><rect id="backgroundrect" width="100%" height="100%" x="0" y="0" fill="none" stroke="none" class="" style=""/><defs><path d="M328.03 374.79C293.78 374.79 266.03 402.55 266.03 436.79C266.03 471.04 293.78 498.79 328.03 498.79C362.27 498.79 390.03 471.04 390.03 436.79C390.03 402.55 362.27 374.79 328.03 374.79Z" id="mLEi8YSG3"/><path d="M301.4 481.38C301.74 481.29 302.13 481.28 302.41 481.11C306.55 478.47 310.77 476 315.38 474.24C318.69 472.98 322.04 471.83 325.07 469.87C327.17 468.52 329.4 467.33 331.67 466.27C334.88 464.78 337.77 462.89 340.24 460.36C343.96 456.55 348.05 453.19 352.35 450.07C353.96 448.91 355.46 447.58 356.97 446.29C357.32 445.98 357.51 445.5 357.78 445.09C358.37 444.18 358.8 443.09 359.58 442.4C361.39 440.8 361.81 438.9 361.34 436.67C360.95 434.82 360.51 432.97 360.16 431.11C359.65 428.4 358.91 425.8 357.26 423.54C356.7 422.77 356.41 421.99 356.41 421C356.42 420.37 356.14 419.68 355.82 419.11C354.31 416.35 352.47 413.83 350.25 411.61C349.81 411.17 349.77 410.83 349.87 410.26C350.03 409.35 350.33 408.29 350.02 407.5C349.02 404.94 347.3 403.02 344.42 402.45C341.43 401.86 338.44 402.03 335.44 402.3C335.07 402.34 334.6 402.31 334.33 402.11C333.25 401.33 332.07 401.3 330.9 401.66C328.15 402.5 325.79 404.01 323.73 405.99C323.54 406.18 323.34 406.4 323.22 406.64C321.78 409.58 319.5 411.88 317.36 414.27C313.71 418.32 311.25 422.96 310.02 428.27C309.33 431.25 308.62 434.23 307.87 437.2C307.65 438.05 307.47 438.99 306.98 439.68C304.84 442.66 302.12 444.92 298.5 445.94C296.68 446.45 294.8 446.84 293.04 447.52C288.9 449.11 284.81 450.83 280.71 452.53C280.49 452.62 280.37 452.93 280.2 453.14C280.28 453.21 280.36 453.28 280.44 453.36C280.71 453.25 281 453.15 281.27 453.03C283.96 451.91 286.61 450.72 289.32 449.68C291.98 448.66 294.63 447.56 297.38 446.92C301.26 446.03 304.27 443.95 306.77 441.02C307.42 440.26 307.9 439.27 308.21 438.3C308.76 436.55 309.1 434.74 309.56 432.96C310.26 430.24 310.83 427.47 311.72 424.81C313.17 420.47 315.78 416.81 318.88 413.47C320.27 411.97 321.74 410.44 322.71 408.67C324.62 405.2 327.69 403.47 331.19 402.24C332.15 401.91 333.1 402.03 334 402.64C334.36 402.88 334.9 402.98 335.36 402.97C337.47 402.91 339.58 402.68 341.69 402.73C344.63 402.79 347.19 403.65 348.85 406.41C349.76 407.9 349.73 409.26 349.03 410.77C347.73 410.24 346.38 409.93 345.41 408.74C344.99 408.22 344.09 407.86 343.39 407.84C341.91 407.78 340.41 407.99 338.92 408.11C338.34 408.15 337.76 408.24 337.18 408.3C337.18 408.41 337.17 408.52 337.17 408.64C337.52 408.68 337.87 408.79 338.21 408.76C339.55 408.65 340.89 408.46 342.23 408.34C343.8 408.2 345.04 408.78 345.88 410.15C346.22 410.7 346.57 411.23 346.94 411.76C347.2 412.14 347.47 412.52 347.79 412.84C347.94 412.98 348.25 412.97 348.48 413.02C348.4 412.83 348.35 412.61 348.23 412.44C347.87 411.91 347.48 411.41 347.1 410.9C347.17 410.82 347.24 410.74 347.31 410.67C348.13 411.11 349.11 411.39 349.75 412.02C352.04 414.26 353.92 416.84 355.4 419.68C355.66 420.18 355.72 420.79 355.86 421.35C355.74 421.42 355.61 421.49 355.49 421.56C354.8 420.74 353.97 420 353.47 419.08C352.72 417.69 351.67 416.91 350.13 416.66C348.9 416.45 347.69 416.13 346.46 415.87C346.36 415.85 346.24 415.9 345.84 415.98C346.25 416.29 346.46 416.55 346.71 416.61C347.66 416.84 348.61 417.09 349.58 417.18C351.31 417.35 352.48 418.17 353.13 419.8C353.45 420.62 353.87 421.41 354.29 422.2C354.44 422.48 354.72 422.69 354.94 422.94C355.03 422.89 355.11 422.84 355.2 422.79C355.05 422.41 354.9 422.04 354.74 421.6C356.52 423.02 358.73 426.83 358.81 428.65C358.58 428.29 358.41 428.01 358.24 427.73C358.13 427.76 358.02 427.8 357.91 427.83C358.01 428.19 358.01 428.61 358.21 428.9C359.26 430.39 359.83 431.96 359.43 433.81C359.32 434.36 359.45 434.81 360.21 434.41C360.38 435.19 360.52 435.88 360.69 436.56C361.23 438.79 360.78 440.66 358.91 442.15C358.32 442.63 357.73 443.33 357.52 444.04C357.14 445.27 356.37 446.1 355.44 446.86C354.65 447.5 353.89 448.17 353.07 448.76C348.1 452.32 343.39 456.18 339.11 460.56C337.23 462.47 335.01 463.93 332.59 465.12C330.06 466.36 327.62 467.76 325.12 469.05C322.95 470.17 320.78 471.3 318.57 472.33C317.13 473 315.61 473.5 314.12 474.07C309.56 475.82 305.49 478.5 301.31 480.98C301.34 481.11 301.37 481.25 301.4 481.38Z" id="b3kl0lvxJ"/><path d="M314.13 474.07C315.62 473.5 317.13 473 318.57 472.33C320.79 471.3 322.96 470.17 325.13 469.05C327.62 467.75 330.07 466.35 332.59 465.12C335.02 463.93 337.24 462.47 339.11 460.55C343.4 456.18 348.11 452.32 353.07 448.75C353.89 448.16 354.66 447.5 355.44 446.86C356.37 446.1 357.15 445.27 357.52 444.03C357.74 443.32 358.32 442.63 358.92 442.15C360.78 440.65 361.23 438.78 360.69 436.56C360.53 435.88 360.38 435.19 360.21 434.41C359.46 434.8 359.32 434.36 359.44 433.81C359.84 431.96 359.26 430.38 358.21 428.89C358.01 428.61 358.01 428.18 357.92 427.82C358.03 427.79 358.14 427.76 358.24 427.73C358.42 428.01 358.59 428.29 358.81 428.65C358.74 426.83 356.52 423.01 354.74 421.6C354.91 422.03 355.05 422.41 355.2 422.78C355.12 422.83 355.03 422.88 354.95 422.94C354.72 422.69 354.44 422.48 354.29 422.19C353.87 421.41 353.45 420.62 353.13 419.8C352.49 418.17 351.32 417.35 349.59 417.18C348.62 417.08 347.66 416.84 346.71 416.6C346.46 416.54 346.26 416.28 345.84 415.98C346.25 415.9 346.37 415.84 346.47 415.87C347.69 416.12 348.9 416.45 350.14 416.65C351.68 416.9 352.72 417.68 353.48 419.07C353.98 419.99 354.81 420.73 355.49 421.56C355.62 421.49 355.74 421.42 355.87 421.35C355.72 420.79 355.67 420.18 355.41 419.68C353.92 416.84 352.04 414.26 349.76 412.02C349.12 411.39 348.14 411.11 347.31 410.66C347.24 410.74 347.18 410.82 347.11 410.89C347.49 411.4 347.87 411.91 348.23 412.43C348.35 412.6 348.4 412.82 348.49 413.02C348.25 412.96 347.95 412.98 347.8 412.83C347.47 412.52 347.21 412.13 346.95 411.76C346.58 411.23 346.22 410.69 345.88 410.15C345.04 408.77 343.81 408.19 342.23 408.34C340.89 408.46 339.56 408.64 338.21 408.76C337.87 408.79 337.52 408.68 337.17 408.63C337.18 408.52 337.18 408.41 337.19 408.3C337.76 408.23 338.34 408.15 338.92 408.1C340.41 407.99 341.91 407.78 343.4 407.83C344.09 407.86 344.99 408.22 345.41 408.74C346.39 409.93 347.73 410.24 349.03 410.76C349.74 409.25 349.76 407.9 348.86 406.4C347.19 403.64 344.63 402.79 341.69 402.72C339.59 402.68 337.47 402.91 335.36 402.97C334.91 402.98 334.37 402.88 334 402.63C333.11 402.03 332.15 401.9 331.2 402.24C327.69 403.47 324.62 405.2 322.72 408.67C321.74 410.44 320.28 411.97 318.89 413.47C315.78 416.81 313.17 420.46 311.72 424.8C310.83 427.46 310.26 430.23 309.56 432.96C309.11 434.74 308.76 436.55 308.21 438.3C307.91 439.26 307.42 440.25 306.77 441.02C304.27 443.94 301.26 446.02 297.39 446.92C294.64 447.55 291.98 448.65 289.33 449.67C286.62 450.71 283.96 451.91 281.28 453.03C281 453.15 280.72 453.25 280.44 453.35C280.36 453.28 280.28 453.21 280.2 453.13C280.37 452.93 280.5 452.61 280.71 452.52C284.81 450.83 288.91 449.11 293.05 447.52C294.81 446.84 296.68 446.45 298.51 445.93C302.12 444.92 304.84 442.66 306.98 439.68C307.48 438.99 307.66 438.05 307.87 437.19C308.62 434.22 309.34 431.25 310.03 428.27C311.26 422.96 313.72 418.32 317.36 414.26C319.51 411.88 321.79 409.58 323.23 406.64C323.35 406.4 323.54 406.18 323.74 405.99C325.8 404.01 328.16 402.49 330.9 401.66C332.08 401.3 333.25 401.33 334.33 402.11C334.61 402.31 335.08 402.33 335.45 402.3C338.45 402.02 341.43 401.86 344.42 402.45C347.31 403.02 349.02 404.94 350.03 407.5C350.33 408.28 350.04 409.35 349.88 410.26C349.78 410.83 349.81 411.17 350.25 411.61C352.48 413.82 354.32 416.35 355.83 419.1C356.14 419.68 356.42 420.37 356.42 421C356.41 421.98 356.71 422.77 357.27 423.54C358.91 425.79 359.66 428.4 360.16 431.1C360.51 432.97 360.95 434.81 361.35 436.67C361.82 438.9 361.4 440.8 359.59 442.4C358.81 443.09 358.38 444.18 357.78 445.09C357.52 445.49 357.33 445.98 356.97 446.28C355.46 447.58 353.97 448.9 352.36 450.07C348.05 453.19 343.96 456.55 340.25 460.36C337.78 462.89 334.88 464.78 331.67 466.27C329.4 467.32 327.17 468.51 325.07 469.87C322.05 471.82 318.69 472.97 315.38 474.24C310.77 476 306.55 478.47 302.41 481.1C302.13 481.28 301.74 481.29 301.41 481.38C301.37 481.25 301.34 481.11 301.31 480.98C305.49 478.5 309.56 475.83 314.13 474.07Z" id="cF4LbaXSt"/></defs><g class="currentLayer" style=""><title>Layer 1</title><g id="svg_1" class="selected"><g id="svg_2"><g id="svg_3"><use xlink:href="#mLEi8YSG3" opacity="1" fill="#800000" fill-opacity="1" id="svg_4" y="-371.7900085449219" x="-263.0299987792969"/><g id="svg_5"><use xlink:href="#mLEi8YSG3" opacity="1" fill-opacity="0" stroke="#ffffff" stroke-width="2.5" stroke-opacity="1" id="svg_6" y="-371.7900085449219" x="-263.0299987792969"/></g></g><g id="svg_7"><use xlink:href="#b3kl0lvxJ" opacity="1" fill="#000000" fill-opacity="0" id="svg_8" y="-371.7900085449219" x="-263.0299987792969"/><g id="svg_9"><use xlink:href="#b3kl0lvxJ" opacity="1" fill-opacity="0" stroke="#ffffff" stroke-width="2.5" stroke-opacity="1" id="svg_10" y="-371.7900085449219" x="-263.0299987792969"/></g></g><g id="svg_11"><use xlink:href="#cF4LbaXSt" opacity="1" fill="#000000" fill-opacity="0" id="svg_12" y="-371.7900085449219" x="-263.0299987792969"/><g id="svg_13"><use xlink:href="#cF4LbaXSt" opacity="1" fill-opacity="0" stroke="#ffffff" stroke-width="2.5" stroke-opacity="1" id="svg_14" y="-371.7900085449219" x="-263.0299987792969"/></g></g></g></g></g></svg>