<svg xmlns="http://www.w3.org/2000/svg" xmlns:xlink="http://www.w3.org/1999/xlink" version="1.1" preserveAspectRatio="xMidYMid meet" width="130" height="130" style=""><rect id="backgroundrect" width="100%" height="100%" x="0" y="0" fill="none" stroke="none" class="" style=""/><defs><path d="M384 44C349.76 44 322 71.76 322 106C322 140.24 349.76 168 384 168C418.24 168 446 140.24 446 106C446 71.76 418.24 44 384 44Z" id="e2BA3jDjI8"/><path d="M413.07 66.58C412.04 64.28 409.99 63.59 407.44 64.63C404.49 65.82 401.86 67.6 399.43 69.62C395.72 72.71 392.15 75.99 388.5 79.16C387.11 80.37 385.64 81.49 384.15 82.7C383.91 80.83 383.06 80.12 381.32 80.47C380.13 80.7 378.99 81.2 377.84 81.59C375.81 82.27 373.83 83.21 371.75 83.57C369.23 84.01 367.44 85.18 366.06 87.29C363.51 91.2 360.5 94.77 357.35 98.21C356.96 98.65 356.64 99.21 356.45 99.77C355.14 103.53 353.84 107.29 352.61 111.07C351.56 114.32 349.9 117.4 349.99 120.96C350 121.24 349.61 121.65 349.31 121.81C347.69 122.68 346.03 123.48 344.41 124.33C344.19 124.44 344.06 124.71 343.89 124.91C344.14 124.91 344.45 125 344.65 124.9C346.22 124.13 347.75 123.28 349.33 122.54C350.21 122.13 350.63 121.57 350.68 120.59C350.74 119.43 350.77 118.22 351.13 117.14C353.04 111.39 355.05 105.67 357.04 99.95C357.17 99.55 357.36 99.13 357.63 98.83C361.12 95.07 364.3 91.07 367.19 86.83C368.13 85.46 369.35 84.65 371.01 84.4C373.63 84.01 376.11 83.16 378.5 82C379.45 81.54 380.52 81.29 381.55 81.07C382.2 80.94 382.96 80.95 383.33 81.69C383.73 82.48 383.49 83.29 382.74 83.92C382.36 84.24 382.01 84.59 381.61 84.87C377.24 87.91 372.82 90.9 368.49 94.01C365.35 96.25 362.33 98.65 359.26 100.99C359.01 101.18 358.85 101.49 358.65 101.74C358.72 101.81 358.8 101.89 358.87 101.96C359.1 101.82 359.35 101.7 359.55 101.52C360.17 101.01 360.72 100.43 361.37 99.97C365.62 96.97 369.83 93.9 374.17 91.02C379.84 87.27 385.02 82.93 390.14 78.49C391.87 76.98 393.61 75.49 395.35 73.99C396.42 73.07 397.53 72.2 398.55 71.23C400.96 68.97 403.7 67.19 406.62 65.67C407.34 65.3 408.16 65.07 408.95 64.87C410.13 64.57 411.12 64.96 411.92 65.87C412.74 66.81 413.05 67.84 412.41 68.98C412.1 69.53 411.73 70.08 411.27 70.5C405.63 75.73 399.72 80.67 394.42 86.28C392.48 88.33 390.18 90.06 388.05 91.94C387.9 92.07 387.82 92.27 387.7 92.43C387.77 92.5 387.84 92.57 387.9 92.64C388.25 92.45 388.66 92.32 388.95 92.06C390.99 90.25 393.13 88.54 395.01 86.58C401.74 79.58 409.07 73.26 416.48 67.02C417.39 66.25 418.47 65.92 419.62 65.9C421.9 65.84 423.47 68.56 422.41 70.81C422 71.69 421.38 72.48 420.75 73.22C418.98 75.29 417.16 77.32 415.35 79.35C410.17 85.12 405.13 91.02 399.09 95.96C398.23 96.67 397.56 97.62 396.83 98.48C396.62 98.74 396.54 99.09 396.4 99.4C396.48 99.46 396.56 99.53 396.63 99.59C396.8 99.44 396.99 99.31 397.14 99.14C398.05 98.12 398.82 96.91 399.87 96.07C404.17 92.66 407.78 88.56 411.5 84.57C414.17 81.7 416.7 78.7 419.31 75.77C420.15 74.82 421.17 74.6 422.2 75.09C424.07 75.98 424.87 78.8 423.73 80.52C420.91 84.78 418.09 89.04 414.95 93.09C412.39 96.41 409.73 99.57 406.59 102.35C405.58 103.24 404.63 104.22 403.83 105.3C402.54 107.04 401.39 108.89 400.2 110.71C400.09 110.89 400.15 111.18 400.13 111.42C400.33 111.28 400.57 111.18 400.72 110.99C400.94 110.71 401.1 110.36 401.28 110.05C402.87 107.37 404.76 104.95 406.98 102.75C410.6 99.19 414.12 95.52 417.68 91.89C418.26 91.3 418.77 90.63 419.4 90.1C420.34 89.29 421.68 89.36 422.24 90.24C422.83 91.16 423.32 92.2 422.93 93.28C422.41 94.74 421.81 96.19 421.04 97.53C418.65 101.63 415.43 105.11 412.35 108.69C408.69 112.94 404.87 117.05 402.1 121.99C401.59 122.91 400.87 123.77 400.08 124.47C395.37 128.68 390.67 132.91 385.85 136.98C381.18 140.93 376.18 144.4 370.27 146.36C368.95 146.8 367.72 147.49 366.44 148.06C366.47 148.18 366.5 148.29 366.53 148.41C366.91 148.34 367.33 148.35 367.68 148.2C369.23 147.54 370.72 146.73 372.3 146.18C375.79 144.95 378.87 143.04 381.82 140.88C387.7 136.59 393.09 131.72 398.5 126.86C400.83 124.76 402.71 122.36 404.35 119.71C405.5 117.84 406.85 116.07 408.25 114.38C410.69 111.42 413.25 108.57 415.74 105.66C418.31 102.65 420.82 99.59 422.59 96.02C423.03 95.15 423.37 94.21 423.59 93.27C423.94 91.79 423.03 89.69 421.93 89.16C420.75 88.59 419.42 89.05 418.13 90.45C417.69 90.94 417.25 91.42 416.81 91.91C416.75 91.73 416.79 91.63 416.85 91.54C419.31 87.99 421.76 84.44 424.23 80.9C424.95 79.87 425.17 78.79 424.77 77.6C424.14 75.7 423.1 74.27 420.78 74.19C421.04 73.88 421.26 73.67 421.42 73.42C422.01 72.47 422.78 71.57 423.13 70.53C424.17 67.44 421.7 64.71 418.55 65.45C417.55 65.69 416.61 66.3 415.74 66.88C414.86 67.48 414.11 68.25 413.38 68.89C413.28 68.09 413.37 67.25 413.07 66.58Z" id="aKObY3nlY"/><path d="M415.74 66.89C416.61 66.3 417.55 65.69 418.55 65.46C421.7 64.71 424.17 67.44 423.13 70.53C422.78 71.57 422.02 72.47 421.42 73.42C421.27 73.67 421.04 73.88 420.78 74.2C423.1 74.27 424.14 75.7 424.77 77.6C425.17 78.8 424.95 79.88 424.23 80.9C421.76 84.44 419.31 87.99 416.85 91.54C416.79 91.63 416.75 91.73 416.81 91.91C417.25 91.42 417.69 90.94 418.13 90.45C419.42 89.05 420.76 88.59 421.93 89.16C423.03 89.69 423.94 91.79 423.59 93.27C423.37 94.21 423.03 95.15 422.6 96.02C420.82 99.59 418.32 102.65 415.74 105.66C413.25 108.57 410.69 111.43 408.25 114.38C406.85 116.07 405.5 117.84 404.35 119.71C402.71 122.36 400.83 124.76 398.5 126.86C393.09 131.72 387.7 136.59 381.82 140.88C378.87 143.04 375.79 144.95 372.3 146.18C370.72 146.74 369.23 147.55 367.68 148.2C367.33 148.35 366.91 148.34 366.53 148.41C366.5 148.29 366.47 148.18 366.44 148.06C367.72 147.49 368.95 146.8 370.28 146.36C376.18 144.4 381.18 140.93 385.85 136.98C390.67 132.91 395.37 128.68 400.08 124.47C400.87 123.77 401.59 122.91 402.1 121.99C404.87 117.05 408.69 112.94 412.35 108.69C415.43 105.11 418.65 101.63 421.04 97.53C421.81 96.19 422.41 94.74 422.93 93.28C423.32 92.2 422.83 91.16 422.24 90.24C421.68 89.36 420.34 89.29 419.4 90.1C418.77 90.63 418.26 91.3 417.68 91.89C414.12 95.52 410.6 99.19 406.98 102.75C404.76 104.95 402.87 107.37 401.28 110.05C401.1 110.36 400.94 110.71 400.72 110.99C400.57 111.18 400.33 111.28 400.13 111.42C400.15 111.18 400.09 110.89 400.2 110.71C401.39 108.89 402.54 107.04 403.83 105.3C404.63 104.22 405.58 103.24 406.59 102.35C409.73 99.57 412.39 96.41 414.95 93.09C418.09 89.04 420.91 84.78 423.73 80.52C424.87 78.8 424.07 75.98 422.2 75.09C421.17 74.6 420.15 74.82 419.31 75.77C416.71 78.7 414.17 81.7 411.5 84.57C407.78 88.56 404.18 92.66 399.87 96.07C398.82 96.91 398.05 98.12 397.14 99.14C396.99 99.31 396.8 99.44 396.63 99.59C396.56 99.52 396.48 99.46 396.4 99.4C396.54 99.09 396.62 98.74 396.83 98.48C397.56 97.62 398.23 96.67 399.09 95.96C405.13 91.02 410.17 85.12 415.35 79.35C417.17 77.32 418.98 75.29 420.75 73.22C421.38 72.49 422 71.69 422.41 70.81C423.47 68.56 421.9 65.84 419.62 65.9C418.47 65.92 417.39 66.26 416.48 67.02C409.07 73.26 401.74 79.58 395.01 86.58C393.13 88.54 390.99 90.25 388.95 92.06C388.66 92.32 388.25 92.45 387.9 92.64C387.84 92.57 387.77 92.5 387.7 92.43C387.82 92.27 387.9 92.07 388.05 91.94C390.18 90.06 392.48 88.33 394.42 86.28C399.72 80.67 405.63 75.73 411.27 70.5C411.73 70.08 412.1 69.53 412.41 68.98C413.05 67.84 412.74 66.81 411.92 65.87C411.12 64.96 410.13 64.57 408.96 64.87C408.16 65.07 407.35 65.29 406.62 65.67C403.71 67.19 400.96 68.97 398.55 71.23C397.53 72.2 396.42 73.07 395.35 73.99C393.61 75.49 391.87 76.98 390.14 78.49C385.02 82.93 379.84 87.27 374.17 91.02C369.83 93.9 365.62 96.97 361.37 99.97C360.72 100.43 360.17 101.01 359.56 101.52C359.35 101.7 359.1 101.82 358.87 101.96C358.8 101.89 358.73 101.81 358.65 101.74C358.85 101.49 359.01 101.18 359.26 100.99C362.33 98.65 365.36 96.25 368.49 94.01C372.82 90.9 377.24 87.91 381.61 84.87C382.01 84.59 382.36 84.24 382.74 83.92C383.49 83.29 383.73 82.48 383.33 81.69C382.96 80.95 382.2 80.94 381.56 81.07C380.52 81.28 379.45 81.54 378.5 82C376.11 83.16 373.63 84.01 371.01 84.4C369.35 84.65 368.13 85.46 367.19 86.83C364.3 91.07 361.12 95.07 357.64 98.83C357.36 99.13 357.17 99.55 357.04 99.95C355.05 105.67 353.04 111.39 351.13 117.14C350.78 118.22 350.74 119.43 350.68 120.59C350.63 121.57 350.21 122.13 349.33 122.54C347.75 123.28 346.22 124.13 344.66 124.9C344.45 125 344.15 124.91 343.89 124.91C344.06 124.71 344.19 124.44 344.41 124.33C346.04 123.48 347.69 122.68 349.31 121.81C349.61 121.64 350 121.24 349.99 120.96C349.9 117.4 351.56 114.32 352.61 111.07C353.84 107.29 355.14 103.53 356.45 99.77C356.64 99.21 356.96 98.65 357.36 98.21C360.5 94.76 363.51 91.2 366.06 87.29C367.44 85.18 369.23 84.01 371.76 83.57C373.83 83.21 375.81 82.27 377.84 81.59C378.99 81.2 380.13 80.7 381.32 80.47C383.06 80.12 383.91 80.83 384.15 82.7C385.64 81.49 387.11 80.37 388.5 79.16C392.15 75.99 395.72 72.71 399.43 69.62C401.86 67.6 404.49 65.82 407.44 64.63C409.99 63.59 412.04 64.28 413.07 66.58C413.37 67.25 413.28 68.08 413.38 68.89C414.11 68.25 414.86 67.48 415.74 66.89Z" id="cCK8LxoBq"/></defs><g class="currentLayer" style=""><title>Layer 1</title><g id="svg_1" class=""><g id="svg_2"><g id="svg_3"><use xlink:href="#e2BA3jDjI8" opacity="1" fill="#000080" fill-opacity="1" id="svg_4" y="-41" x="-319"/><g id="svg_5"><use xlink:href="#e2BA3jDjI8" opacity="1" fill-opacity="0" stroke="#ffffff" stroke-width="2.5" stroke-opacity="1" id="svg_6" y="-41" x="-319"/></g></g><g id="svg_7"><use xlink:href="#aKObY3nlY" opacity="1" fill="#000000" fill-opacity="0" id="svg_8" y="-41" x="-319"/><g id="svg_9"><use xlink:href="#aKObY3nlY" opacity="1" fill-opacity="0" stroke="#ffffff" stroke-width="2.5" stroke-opacity="1" id="svg_10" y="-41" x="-319"/></g></g><g id="svg_11"><use xlink:href="#cCK8LxoBq" opacity="1" fill="#000000" fill-opacity="0" id="svg_12" y="-41" x="-319"/><g id="svg_13"><use xlink:href="#cCK8LxoBq" opacity="1" fill-opacity="0" stroke="#ffffff" stroke-width="2.5" stroke-opacity="1" id="svg_14" y="-41" x="-319"/></g></g></g></g></g></svg>